<svg width="492" height="395" viewBox="0 0 492 395" fill="none" xmlns="http://www.w3.org/2000/svg">
<path d="M440.888 88.7776L443.343 96.424C441.044 97.1886 439.523 98.4318 438.781 100.154C438.039 101.876 438.433 105.095 439.962 109.814C440.873 112.461 441.597 115.17 442.128 117.919C442.436 119.591 442.254 121.318 441.602 122.889C440.925 124.421 439.84 125.737 438.467 126.695C436.419 128.022 434.186 129.039 431.84 129.711L430.141 130.255L427.694 122.608C430.769 121.612 432.508 120.7 432.91 119.873C433.312 119.046 433.236 117.701 432.681 115.837C431.169 110.694 430.268 107.327 429.979 105.736C429.686 104.14 429.686 102.505 429.979 100.91C430.441 98.9253 431.406 97.0935 432.783 95.5914C430.75 95.1743 428.868 94.2142 427.337 92.8132C425.649 90.9762 424.377 88.797 423.607 86.4242L420.15 77.3081C419.94 76.9192 419.652 76.578 419.304 76.306C418.956 76.034 418.555 75.8372 418.127 75.7279C417.261 75.5013 415.53 75.8043 412.936 76.637L410.481 68.9906L412.129 68.4554C415.527 67.3594 418.28 66.9006 420.37 67.0875C422.38 67.2311 424.258 68.144 425.612 69.6363C427.006 71.1315 428.337 73.8418 429.606 77.7669C430.999 82.0998 432.038 84.8242 432.723 85.94C433.423 87.0682 434.377 88.0168 435.51 88.7096C436.725 89.4233 438.501 89.4488 440.888 88.7776Z" fill="#001E2B" stroke="#001E2B" stroke-linecap="round" stroke-linejoin="round"/>
<path d="M444.278 90.5192L446.742 98.1656C444.431 98.9302 442.91 100.176 442.179 101.904C441.449 103.631 441.839 106.848 443.352 111.555C444.26 114.204 444.987 116.912 445.527 119.66C445.83 121.333 445.648 123.058 445 124.63C444.324 126.162 443.239 127.479 441.865 128.437C439.815 129.75 437.582 130.752 435.238 131.41L433.539 131.954L431.084 124.308C434.168 123.314 435.901 122.405 436.309 121.572C436.716 120.739 436.632 119.397 436.08 117.536C434.567 112.393 433.664 109.026 433.369 107.435C433.084 105.839 433.084 104.205 433.369 102.609C433.838 100.625 434.806 98.7946 436.181 97.2905C434.146 96.8717 432.262 95.9119 430.727 94.5123C429.045 92.6725 427.776 90.494 427.006 88.1234L423.539 79.0073C423.333 78.618 423.046 78.2763 422.7 78.0042C422.353 77.732 421.953 77.5354 421.526 77.427C420.676 77.1976 418.926 77.5035 416.335 78.3361L413.871 70.6898L415.528 70.1545C418.163 69.1785 420.96 68.7143 423.769 68.7866C425.778 68.932 427.655 69.8446 429.011 71.3354C430.404 72.8307 431.732 75.5409 432.995 79.466C434.389 83.7989 435.431 86.5233 436.122 87.6391C436.822 88.7674 437.776 89.716 438.908 90.4088C440.115 91.1649 441.899 91.1904 444.278 90.5192Z" fill="black"/>
<path d="M444.278 90.5192L446.742 98.1656C444.431 98.9302 442.91 100.176 442.179 101.904C441.449 103.631 441.839 106.848 443.352 111.555C444.26 114.204 444.987 116.912 445.527 119.66C445.83 121.333 445.648 123.058 445 124.63C444.324 126.162 443.239 127.479 441.865 128.437C439.815 129.75 437.582 130.752 435.238 131.41L433.539 131.954L431.084 124.308C434.168 123.314 435.901 122.405 436.309 121.572C436.716 120.739 436.632 119.397 436.08 117.536C434.567 112.393 433.664 109.026 433.369 107.435C433.084 105.839 433.084 104.205 433.369 102.609C433.838 100.625 434.806 98.7946 436.181 97.2905C434.146 96.8717 432.262 95.9119 430.727 94.5123C429.045 92.6725 427.776 90.494 427.006 88.1234L423.539 79.0073C423.333 78.618 423.046 78.2763 422.7 78.0042C422.353 77.732 421.953 77.5354 421.526 77.427C420.676 77.1976 418.926 77.5035 416.335 78.3361L413.871 70.6898L415.528 70.1545C418.163 69.1785 420.96 68.7143 423.769 68.7866C425.778 68.932 427.655 69.8446 429.011 71.3354C430.404 72.8307 431.732 75.5409 432.995 79.466C434.389 83.7989 435.431 86.5233 436.122 87.6391C436.822 88.7674 437.776 89.716 438.908 90.4088C440.115 91.1649 441.899 91.1904 444.278 90.5192Z" fill="black"/>
<path d="M444.278 90.5192L446.742 98.1656C444.431 98.9302 442.91 100.176 442.179 101.904C441.449 103.631 441.839 106.848 443.352 111.555C444.26 114.204 444.987 116.912 445.527 119.66C445.83 121.333 445.648 123.058 445 124.63C444.324 126.162 443.239 127.479 441.865 128.437C439.815 129.75 437.582 130.752 435.238 131.41L433.539 131.954L431.084 124.308C434.168 123.314 435.901 122.405 436.309 121.572C436.716 120.739 436.632 119.397 436.08 117.536C434.567 112.393 433.664 109.026 433.369 107.435C433.084 105.839 433.084 104.205 433.369 102.609C433.838 100.625 434.806 98.7946 436.181 97.2905C434.146 96.8717 432.262 95.9119 430.727 94.5123C429.045 92.6725 427.776 90.494 427.006 88.1234L423.539 79.0073C423.333 78.618 423.046 78.2763 422.7 78.0042C422.353 77.732 421.953 77.5354 421.526 77.427C420.676 77.1976 418.926 77.5035 416.335 78.3361L413.871 70.6898L415.528 70.1545C418.163 69.1785 420.96 68.7143 423.769 68.7866C425.778 68.932 427.655 69.8446 429.011 71.3354C430.404 72.8307 431.732 75.5409 432.995 79.466C434.389 83.7989 435.431 86.5233 436.122 87.6391C436.822 88.7674 437.776 89.716 438.908 90.4088C440.115 91.1649 441.899 91.1904 444.278 90.5192Z" fill="white"/>
<path d="M444.278 90.5192L446.742 98.1656C444.431 98.9302 442.91 100.176 442.179 101.904C441.449 103.631 441.839 106.848 443.352 111.555C444.26 114.204 444.987 116.912 445.527 119.66C445.83 121.333 445.648 123.058 445 124.63C444.324 126.162 443.239 127.479 441.865 128.437C439.815 129.75 437.582 130.752 435.238 131.41L433.539 131.954L431.084 124.308C434.168 123.314 435.901 122.405 436.309 121.572C436.716 120.739 436.632 119.397 436.08 117.536C434.567 112.393 433.664 109.026 433.369 107.435C433.084 105.839 433.084 104.205 433.369 102.609C433.838 100.625 434.806 98.7946 436.181 97.2905C434.146 96.8717 432.262 95.9119 430.727 94.5123C429.045 92.6725 427.776 90.494 427.006 88.1234L423.539 79.0073C423.333 78.618 423.046 78.2763 422.7 78.0042C422.353 77.732 421.953 77.5354 421.526 77.427C420.676 77.1976 418.926 77.5035 416.335 78.3361L413.871 70.6898L415.528 70.1545C418.163 69.1785 420.96 68.7143 423.769 68.7866C425.778 68.932 427.655 69.8446 429.011 71.3354C430.404 72.8307 431.732 75.5409 432.995 79.466C434.389 83.7989 435.431 86.5233 436.122 87.6391C436.822 88.7674 437.776 89.716 438.908 90.4088C440.115 91.1649 441.899 91.1904 444.278 90.5192Z" stroke="#001E2B" stroke-linecap="round" stroke-linejoin="round"/>
<path d="M444.278 90.5192L446.742 98.1656C444.431 98.9302 442.91 100.176 442.179 101.904C441.449 103.631 441.839 106.848 443.352 111.555C444.26 114.204 444.987 116.912 445.527 119.66C445.83 121.333 445.648 123.058 445 124.63C444.324 126.162 443.239 127.479 441.865 128.437C439.815 129.75 437.582 130.752 435.238 131.41L433.539 131.954L431.084 124.308C434.168 123.314 435.901 122.405 436.309 121.572C436.716 120.739 436.632 119.397 436.08 117.536C434.567 112.393 433.664 109.026 433.369 107.435C433.084 105.839 433.084 104.205 433.369 102.609C433.838 100.625 434.806 98.7946 436.181 97.2905C434.146 96.8717 432.262 95.9119 430.727 94.5123C429.045 92.6725 427.776 90.494 427.006 88.1234L423.539 79.0073C423.333 78.618 423.046 78.2763 422.7 78.0042C422.353 77.732 421.953 77.5354 421.526 77.427C420.676 77.1976 418.926 77.5035 416.335 78.3361L413.871 70.6898L415.528 70.1545C418.163 69.1785 420.96 68.7143 423.769 68.7866C425.778 68.932 427.655 69.8446 429.011 71.3354C430.404 72.8307 431.732 75.5409 432.995 79.466C434.389 83.7989 435.431 86.5233 436.122 87.6391C436.822 88.7674 437.776 89.716 438.908 90.4088C440.115 91.1649 441.899 91.1904 444.278 90.5192Z" fill="#FFC010" stroke="#001E2B" stroke-linecap="round" stroke-linejoin="round"/>
<path d="M440.888 88.7776L443.343 96.424C441.044 97.1886 439.523 98.4318 438.781 100.154C438.039 101.876 438.433 105.095 439.962 109.814C440.873 112.461 441.597 115.17 442.128 117.919C442.436 119.591 442.254 121.318 441.602 122.889C440.925 124.421 439.84 125.737 438.467 126.695C436.419 128.022 434.186 129.039 431.84 129.711L430.141 130.255L427.694 122.608C430.769 121.612 432.508 120.7 432.91 119.873C433.312 119.046 433.236 117.701 432.681 115.837C431.169 110.694 430.268 107.327 429.979 105.736C429.686 104.14 429.686 102.505 429.979 100.91C430.441 98.9253 431.406 97.0935 432.783 95.5914C430.75 95.1743 428.868 94.2142 427.337 92.8132C425.649 90.9762 424.377 88.797 423.607 86.4242L420.15 77.3081C419.94 76.9192 419.652 76.578 419.304 76.306C418.956 76.034 418.555 75.8372 418.127 75.7279C417.261 75.5013 415.53 75.8043 412.936 76.637L410.481 68.9906L412.129 68.4554C415.527 67.3594 418.28 66.9006 420.37 67.0875C422.38 67.2311 424.258 68.144 425.612 69.6363C427.006 71.1315 428.337 73.8418 429.606 77.7669C430.999 82.0998 432.038 84.8242 432.723 85.94C433.423 87.0682 434.377 88.0168 435.51 88.7096C436.725 89.4233 438.501 89.4488 440.888 88.7776Z" fill="#001E2B" stroke="#001E2B" stroke-linecap="round" stroke-linejoin="round"/>
<path d="M444.278 90.5192L446.742 98.1656C444.431 98.9302 442.91 100.176 442.179 101.904C441.449 103.631 441.839 106.848 443.352 111.555C444.26 114.204 444.987 116.912 445.527 119.66C445.83 121.333 445.648 123.058 445 124.63C444.324 126.162 443.239 127.479 441.865 128.437C439.815 129.75 437.582 130.752 435.238 131.41L433.539 131.954L431.084 124.308C434.168 123.314 435.901 122.405 436.309 121.572C436.716 120.739 436.632 119.397 436.08 117.536C434.567 112.393 433.664 109.026 433.369 107.435C433.084 105.839 433.084 104.205 433.369 102.609C433.838 100.625 434.806 98.7946 436.181 97.2905C434.146 96.8717 432.262 95.9119 430.727 94.5123C429.045 92.6725 427.776 90.494 427.006 88.1234L423.539 79.0073C423.333 78.618 423.046 78.2763 422.7 78.0042C422.353 77.732 421.953 77.5354 421.526 77.427C420.676 77.1976 418.926 77.5035 416.335 78.3361L413.871 70.6898L415.528 70.1545C418.163 69.1785 420.96 68.7143 423.769 68.7866C425.778 68.932 427.655 69.8446 429.011 71.3354C430.404 72.8307 431.732 75.5409 432.995 79.466C434.389 83.7989 435.431 86.5233 436.122 87.6391C436.822 88.7674 437.776 89.716 438.908 90.4088C440.115 91.1649 441.899 91.1904 444.278 90.5192Z" fill="black"/>
<path d="M444.278 90.5192L446.742 98.1656C444.431 98.9302 442.91 100.176 442.179 101.904C441.449 103.631 441.839 106.848 443.352 111.555C444.26 114.204 444.987 116.912 445.527 119.66C445.83 121.333 445.648 123.058 445 124.63C444.324 126.162 443.239 127.479 441.865 128.437C439.815 129.75 437.582 130.752 435.238 131.41L433.539 131.954L431.084 124.308C434.168 123.314 435.901 122.405 436.309 121.572C436.716 120.739 436.632 119.397 436.08 117.536C434.567 112.393 433.664 109.026 433.369 107.435C433.084 105.839 433.084 104.205 433.369 102.609C433.838 100.625 434.806 98.7946 436.181 97.2905C434.146 96.8717 432.262 95.9119 430.727 94.5123C429.045 92.6725 427.776 90.494 427.006 88.1234L423.539 79.0073C423.333 78.618 423.046 78.2763 422.7 78.0042C422.353 77.732 421.953 77.5354 421.526 77.427C420.676 77.1976 418.926 77.5035 416.335 78.3361L413.871 70.6898L415.528 70.1545C418.163 69.1785 420.96 68.7143 423.769 68.7866C425.778 68.932 427.655 69.8446 429.011 71.3354C430.404 72.8307 431.732 75.5409 432.995 79.466C434.389 83.7989 435.431 86.5233 436.122 87.6391C436.822 88.7674 437.776 89.716 438.908 90.4088C440.115 91.1649 441.899 91.1904 444.278 90.5192Z" fill="black"/>
<path d="M444.278 90.5192L446.742 98.1656C444.431 98.9302 442.91 100.176 442.179 101.904C441.449 103.631 441.839 106.848 443.352 111.555C444.26 114.204 444.987 116.912 445.527 119.66C445.83 121.333 445.648 123.058 445 124.63C444.324 126.162 443.239 127.479 441.865 128.437C439.815 129.75 437.582 130.752 435.238 131.41L433.539 131.954L431.084 124.308C434.168 123.314 435.901 122.405 436.309 121.572C436.716 120.739 436.632 119.397 436.08 117.536C434.567 112.393 433.664 109.026 433.369 107.435C433.084 105.839 433.084 104.205 433.369 102.609C433.838 100.625 434.806 98.7946 436.181 97.2905C434.146 96.8717 432.262 95.9119 430.727 94.5123C429.045 92.6725 427.776 90.494 427.006 88.1234L423.539 79.0073C423.333 78.618 423.046 78.2763 422.7 78.0042C422.353 77.732 421.953 77.5354 421.526 77.427C420.676 77.1976 418.926 77.5035 416.335 78.3361L413.871 70.6898L415.528 70.1545C418.163 69.1785 420.96 68.7143 423.769 68.7866C425.778 68.932 427.655 69.8446 429.011 71.3354C430.404 72.8307 431.732 75.5409 432.995 79.466C434.389 83.7989 435.431 86.5233 436.122 87.6391C436.822 88.7674 437.776 89.716 438.908 90.4088C440.115 91.1649 441.899 91.1904 444.278 90.5192Z" fill="white"/>
<path d="M444.278 90.5192L446.742 98.1656C444.431 98.9302 442.91 100.176 442.179 101.904C441.449 103.631 441.839 106.848 443.352 111.555C444.26 114.204 444.987 116.912 445.527 119.66C445.83 121.333 445.648 123.058 445 124.63C444.324 126.162 443.239 127.479 441.865 128.437C439.815 129.75 437.582 130.752 435.238 131.41L433.539 131.954L431.084 124.308C434.168 123.314 435.901 122.405 436.309 121.572C436.716 120.739 436.632 119.397 436.08 117.536C434.567 112.393 433.664 109.026 433.369 107.435C433.084 105.839 433.084 104.205 433.369 102.609C433.838 100.625 434.806 98.7946 436.181 97.2905C434.146 96.8717 432.262 95.9119 430.727 94.5123C429.045 92.6725 427.776 90.494 427.006 88.1234L423.539 79.0073C423.333 78.618 423.046 78.2763 422.7 78.0042C422.353 77.732 421.953 77.5354 421.526 77.427C420.676 77.1976 418.926 77.5035 416.335 78.3361L413.871 70.6898L415.528 70.1545C418.163 69.1785 420.96 68.7143 423.769 68.7866C425.778 68.932 427.655 69.8446 429.011 71.3354C430.404 72.8307 431.732 75.5409 432.995 79.466C434.389 83.7989 435.431 86.5233 436.122 87.6391C436.822 88.7674 437.776 89.716 438.908 90.4088C440.115 91.1649 441.899 91.1904 444.278 90.5192Z" stroke="#001E2B" stroke-linecap="round" stroke-linejoin="round"/>
<path d="M444.278 90.5192L446.742 98.1656C444.431 98.9302 442.91 100.176 442.179 101.904C441.449 103.631 441.839 106.848 443.352 111.555C444.26 114.204 444.987 116.912 445.527 119.66C445.83 121.333 445.648 123.058 445 124.63C444.324 126.162 443.239 127.479 441.865 128.437C439.815 129.75 437.582 130.752 435.238 131.41L433.539 131.954L431.084 124.308C434.168 123.314 435.901 122.405 436.309 121.572C436.716 120.739 436.632 119.397 436.08 117.536C434.567 112.393 433.664 109.026 433.369 107.435C433.084 105.839 433.084 104.205 433.369 102.609C433.838 100.625 434.806 98.7946 436.181 97.2905C434.146 96.8717 432.262 95.9119 430.727 94.5123C429.045 92.6725 427.776 90.494 427.006 88.1234L423.539 79.0073C423.333 78.618 423.046 78.2763 422.7 78.0042C422.353 77.732 421.953 77.5354 421.526 77.427C420.676 77.1976 418.926 77.5035 416.335 78.3361L413.871 70.6898L415.528 70.1545C418.163 69.1785 420.96 68.7143 423.769 68.7866C425.778 68.932 427.655 69.8446 429.011 71.3354C430.404 72.8307 431.732 75.5409 432.995 79.466C434.389 83.7989 435.431 86.5233 436.122 87.6391C436.822 88.7674 437.776 89.716 438.908 90.4088C440.115 91.1649 441.899 91.1904 444.278 90.5192Z" fill="#00ED64" stroke="#001E2B" stroke-linecap="round" stroke-linejoin="round"/>
<path d="M47.1187 276.002L49.3024 268.28C51.6473 268.92 53.6039 268.724 55.1728 267.694C56.7417 266.663 58.1975 263.766 59.5398 259.002C60.2553 256.297 61.1524 253.643 62.2247 251.058C62.8991 249.496 64.0076 248.16 65.4189 247.21C66.831 246.313 68.4615 245.819 70.134 245.782C72.561 245.813 74.9697 246.208 77.2792 246.955L78.9784 247.439L76.8034 255.085C73.6854 254.236 71.7059 253.998 70.9413 254.474C70.1767 254.95 69.4629 256.105 68.8936 257.957C67.3021 263.055 66.1894 266.357 65.555 267.863C64.9074 269.353 64.0014 270.716 62.8789 271.89C61.3933 273.281 59.5769 274.27 57.6025 274.762C59.0609 276.236 60.0942 278.076 60.5931 280.089C60.9835 282.556 60.8328 285.078 60.1513 287.48L57.985 296.979C57.9429 297.419 57.9929 297.863 58.1318 298.283C58.2708 298.703 58.4959 299.089 58.7923 299.417C59.387 300.088 61.0009 300.794 63.6177 301.533L61.4344 309.256L59.7352 308.788C56.2972 307.814 53.7484 306.681 52.0889 305.39C50.4941 304.169 49.4318 302.379 49.1236 300.394C48.7837 298.378 49.1775 295.385 50.3046 291.414C51.545 287.042 52.1879 284.21 52.2332 282.918C52.2782 281.589 52.0105 280.268 51.4517 279.061C50.9136 277.787 49.4692 276.767 47.1187 276.002Z" fill="#001E2B" stroke="#001E2B" stroke-linecap="round" stroke-linejoin="round"/>
<path d="M45.2754 272.672L47.4587 264.941C49.8036 265.586 51.7606 265.394 53.3295 264.363C54.8984 263.332 56.3542 260.435 57.6965 255.672C58.407 252.962 59.3038 250.305 60.381 247.719C61.0526 246.158 62.1623 244.824 63.5757 243.879C64.9842 242.974 66.6169 242.48 68.2907 242.452C70.7177 242.483 73.1264 242.878 75.436 243.624L77.1351 244.1L74.9601 251.797C71.8393 250.914 69.8853 250.71 69.098 251.186C68.3107 251.662 67.6281 252.823 67.0504 254.669C65.4645 259.767 64.3487 263.069 63.703 264.575C63.0613 266.066 62.1577 267.43 61.0352 268.602C59.5487 269.99 57.7328 270.975 55.7592 271.466C57.2149 272.945 58.2476 274.787 58.7498 276.801C59.1661 278.653 59.0132 281.117 58.308 284.184L56.1417 293.691C56.0997 294.131 56.1496 294.575 56.2886 294.995C56.4275 295.415 56.6526 295.801 56.949 296.129C57.5437 296.8 59.1577 297.506 61.7744 298.245L59.5824 305.968L57.8832 305.492C54.4509 304.523 51.9021 303.39 50.2369 302.093C48.6422 300.871 47.5778 299.083 47.2633 297.098C46.9348 295.081 47.3316 292.088 48.4531 288.118C49.6935 283.739 50.3359 280.907 50.3812 279.622C50.4235 278.292 50.1532 276.971 49.5914 275.765C49.059 274.462 47.6203 273.431 45.2754 272.672Z" fill="black"/>
<path d="M45.2754 272.672L47.4587 264.941C49.8036 265.586 51.7606 265.394 53.3295 264.363C54.8984 263.332 56.3542 260.435 57.6965 255.672C58.407 252.962 59.3038 250.305 60.381 247.719C61.0526 246.158 62.1623 244.824 63.5757 243.879C64.9842 242.974 66.6169 242.48 68.2907 242.452C70.7177 242.483 73.1264 242.878 75.436 243.624L77.1351 244.1L74.9601 251.797C71.8393 250.914 69.8853 250.71 69.098 251.186C68.3107 251.662 67.6281 252.823 67.0504 254.669C65.4645 259.767 64.3487 263.069 63.703 264.575C63.0613 266.066 62.1577 267.43 61.0352 268.602C59.5487 269.99 57.7328 270.975 55.7592 271.466C57.2149 272.945 58.2476 274.787 58.7498 276.801C59.1661 278.653 59.0132 281.117 58.308 284.184L56.1417 293.691C56.0997 294.131 56.1496 294.575 56.2886 294.995C56.4275 295.415 56.6526 295.801 56.949 296.129C57.5437 296.8 59.1577 297.506 61.7744 298.245L59.5824 305.968L57.8832 305.492C54.4509 304.523 51.9021 303.39 50.2369 302.093C48.6422 300.871 47.5778 299.083 47.2633 297.098C46.9348 295.081 47.3316 292.088 48.4531 288.118C49.6935 283.739 50.3359 280.907 50.3812 279.622C50.4235 278.292 50.1532 276.971 49.5914 275.765C49.059 274.462 47.6203 273.431 45.2754 272.672Z" fill="black"/>
<path d="M45.2754 272.672L47.4587 264.941C49.8036 265.586 51.7606 265.394 53.3295 264.363C54.8984 263.332 56.3542 260.435 57.6965 255.672C58.407 252.962 59.3038 250.305 60.381 247.719C61.0526 246.158 62.1623 244.824 63.5757 243.879C64.9842 242.974 66.6169 242.48 68.2907 242.452C70.7177 242.483 73.1264 242.878 75.436 243.624L77.1351 244.1L74.9601 251.797C71.8393 250.914 69.8853 250.71 69.098 251.186C68.3107 251.662 67.6281 252.823 67.0504 254.669C65.4645 259.767 64.3487 263.069 63.703 264.575C63.0613 266.066 62.1577 267.43 61.0352 268.602C59.5487 269.99 57.7328 270.975 55.7592 271.466C57.2149 272.945 58.2476 274.787 58.7498 276.801C59.1661 278.653 59.0132 281.117 58.308 284.184L56.1417 293.691C56.0997 294.131 56.1496 294.575 56.2886 294.995C56.4275 295.415 56.6526 295.801 56.949 296.129C57.5437 296.8 59.1577 297.506 61.7744 298.245L59.5824 305.968L57.8832 305.492C54.4509 304.523 51.9021 303.39 50.2369 302.093C48.6422 300.871 47.5778 299.083 47.2633 297.098C46.9348 295.081 47.3316 292.088 48.4531 288.118C49.6935 283.739 50.3359 280.907 50.3812 279.622C50.4235 278.292 50.1532 276.971 49.5914 275.765C49.059 274.462 47.6203 273.431 45.2754 272.672Z" fill="white"/>
<path d="M45.2754 272.672L47.4587 264.941C49.8036 265.586 51.7606 265.394 53.3295 264.363C54.8984 263.332 56.3542 260.435 57.6965 255.672C58.407 252.962 59.3038 250.305 60.381 247.719C61.0526 246.158 62.1623 244.824 63.5757 243.879C64.9842 242.974 66.6169 242.48 68.2907 242.452C70.7177 242.483 73.1264 242.878 75.436 243.624L77.1351 244.1L74.9601 251.797C71.8393 250.914 69.8853 250.71 69.098 251.186C68.3107 251.662 67.6281 252.823 67.0504 254.669C65.4645 259.767 64.3487 263.069 63.703 264.575C63.0613 266.066 62.1577 267.43 61.0352 268.602C59.5487 269.99 57.7328 270.975 55.7592 271.466C57.2149 272.945 58.2476 274.787 58.7498 276.801C59.1661 278.653 59.0132 281.117 58.308 284.184L56.1417 293.691C56.0997 294.131 56.1496 294.575 56.2886 294.995C56.4275 295.415 56.6526 295.801 56.949 296.129C57.5437 296.8 59.1577 297.506 61.7744 298.245L59.5824 305.968L57.8832 305.492C54.4509 304.523 51.9021 303.39 50.2369 302.093C48.6422 300.871 47.5778 299.083 47.2633 297.098C46.9348 295.081 47.3316 292.088 48.4531 288.118C49.6935 283.739 50.3359 280.907 50.3812 279.622C50.4235 278.292 50.1532 276.971 49.5914 275.765C49.059 274.462 47.6203 273.431 45.2754 272.672Z" stroke="#001E2B" stroke-linecap="round" stroke-linejoin="round"/>
<path d="M45.2754 272.672L47.4587 264.941C49.8036 265.586 51.7606 265.394 53.3295 264.363C54.8984 263.332 56.3542 260.435 57.6965 255.672C58.407 252.962 59.3038 250.305 60.381 247.719C61.0526 246.158 62.1623 244.824 63.5757 243.879C64.9842 242.974 66.6169 242.48 68.2907 242.452C70.7177 242.483 73.1264 242.878 75.436 243.624L77.1351 244.1L74.9601 251.797C71.8393 250.914 69.8853 250.71 69.098 251.186C68.3107 251.662 67.6281 252.823 67.0504 254.669C65.4645 259.767 64.3487 263.069 63.703 264.575C63.0613 266.066 62.1577 267.43 61.0352 268.602C59.5487 269.99 57.7328 270.975 55.7592 271.466C57.2149 272.945 58.2476 274.787 58.7498 276.801C59.1661 278.653 59.0132 281.117 58.308 284.184L56.1417 293.691C56.0997 294.131 56.1496 294.575 56.2886 294.995C56.4275 295.415 56.6526 295.801 56.949 296.129C57.5437 296.8 59.1577 297.506 61.7744 298.245L59.5824 305.968L57.8832 305.492C54.4509 304.523 51.9021 303.39 50.2369 302.093C48.6422 300.871 47.5778 299.083 47.2633 297.098C46.9348 295.081 47.3316 292.088 48.4531 288.118C49.6935 283.739 50.3359 280.907 50.3812 279.622C50.4235 278.292 50.1532 276.971 49.5914 275.765C49.059 274.462 47.6203 273.431 45.2754 272.672Z" fill="#FFC010" stroke="#001E2B" stroke-linecap="round" stroke-linejoin="round"/>
<path d="M47.1187 276.002L49.3024 268.28C51.6473 268.92 53.6039 268.724 55.1728 267.694C56.7417 266.663 58.1975 263.766 59.5398 259.002C60.2553 256.297 61.1524 253.643 62.2247 251.058C62.8991 249.496 64.0076 248.16 65.4189 247.21C66.831 246.313 68.4615 245.819 70.134 245.782C72.561 245.813 74.9697 246.208 77.2792 246.955L78.9784 247.439L76.8034 255.085C73.6854 254.236 71.7059 253.998 70.9413 254.474C70.1767 254.95 69.4629 256.105 68.8936 257.957C67.3021 263.055 66.1894 266.357 65.555 267.863C64.9074 269.353 64.0014 270.716 62.8789 271.89C61.3933 273.281 59.5769 274.27 57.6025 274.762C59.0609 276.236 60.0942 278.076 60.5931 280.089C60.9835 282.556 60.8328 285.078 60.1513 287.48L57.985 296.979C57.9429 297.419 57.9929 297.863 58.1318 298.283C58.2708 298.703 58.4959 299.089 58.7923 299.417C59.387 300.088 61.0009 300.794 63.6177 301.533L61.4344 309.256L59.7352 308.788C56.2972 307.814 53.7484 306.681 52.0889 305.39C50.4941 304.169 49.4318 302.379 49.1236 300.394C48.7837 298.378 49.1775 295.385 50.3046 291.414C51.545 287.042 52.1879 284.21 52.2332 282.918C52.2782 281.589 52.0105 280.268 51.4517 279.061C50.9136 277.787 49.4692 276.767 47.1187 276.002Z" fill="#001E2B" stroke="#001E2B" stroke-linecap="round" stroke-linejoin="round"/>
<path d="M45.2754 272.672L47.4587 264.941C49.8036 265.586 51.7606 265.394 53.3295 264.363C54.8984 263.332 56.3542 260.435 57.6965 255.672C58.407 252.962 59.3038 250.305 60.381 247.719C61.0526 246.158 62.1623 244.824 63.5757 243.879C64.9842 242.974 66.6169 242.48 68.2907 242.452C70.7177 242.483 73.1264 242.878 75.436 243.624L77.1351 244.1L74.9601 251.797C71.8393 250.914 69.8853 250.71 69.098 251.186C68.3107 251.662 67.6281 252.823 67.0504 254.669C65.4645 259.767 64.3487 263.069 63.703 264.575C63.0613 266.066 62.1577 267.43 61.0352 268.602C59.5487 269.99 57.7328 270.975 55.7592 271.466C57.2149 272.945 58.2476 274.787 58.7498 276.801C59.1661 278.653 59.0132 281.117 58.308 284.184L56.1417 293.691C56.0997 294.131 56.1496 294.575 56.2886 294.995C56.4275 295.415 56.6526 295.801 56.949 296.129C57.5437 296.8 59.1577 297.506 61.7744 298.245L59.5824 305.968L57.8832 305.492C54.4509 304.523 51.9021 303.39 50.2369 302.093C48.6422 300.871 47.5778 299.083 47.2633 297.098C46.9348 295.081 47.3316 292.088 48.4531 288.118C49.6935 283.739 50.3359 280.907 50.3812 279.622C50.4235 278.292 50.1532 276.971 49.5914 275.765C49.059 274.462 47.6203 273.431 45.2754 272.672Z" fill="black"/>
<path d="M45.2754 272.672L47.4587 264.941C49.8036 265.586 51.7606 265.394 53.3295 264.363C54.8984 263.332 56.3542 260.435 57.6965 255.672C58.407 252.962 59.3038 250.305 60.381 247.719C61.0526 246.158 62.1623 244.824 63.5757 243.879C64.9842 242.974 66.6169 242.48 68.2907 242.452C70.7177 242.483 73.1264 242.878 75.436 243.624L77.1351 244.1L74.9601 251.797C71.8393 250.914 69.8853 250.71 69.098 251.186C68.3107 251.662 67.6281 252.823 67.0504 254.669C65.4645 259.767 64.3487 263.069 63.703 264.575C63.0613 266.066 62.1577 267.43 61.0352 268.602C59.5487 269.99 57.7328 270.975 55.7592 271.466C57.2149 272.945 58.2476 274.787 58.7498 276.801C59.1661 278.653 59.0132 281.117 58.308 284.184L56.1417 293.691C56.0997 294.131 56.1496 294.575 56.2886 294.995C56.4275 295.415 56.6526 295.801 56.949 296.129C57.5437 296.8 59.1577 297.506 61.7744 298.245L59.5824 305.968L57.8832 305.492C54.4509 304.523 51.9021 303.39 50.2369 302.093C48.6422 300.871 47.5778 299.083 47.2633 297.098C46.9348 295.081 47.3316 292.088 48.4531 288.118C49.6935 283.739 50.3359 280.907 50.3812 279.622C50.4235 278.292 50.1532 276.971 49.5914 275.765C49.059 274.462 47.6203 273.431 45.2754 272.672Z" fill="black"/>
<path d="M45.2754 272.672L47.4587 264.941C49.8036 265.586 51.7606 265.394 53.3295 264.363C54.8984 263.332 56.3542 260.435 57.6965 255.672C58.407 252.962 59.3038 250.305 60.381 247.719C61.0526 246.158 62.1623 244.824 63.5757 243.879C64.9842 242.974 66.6169 242.48 68.2907 242.452C70.7177 242.483 73.1264 242.878 75.436 243.624L77.1351 244.1L74.9601 251.797C71.8393 250.914 69.8853 250.71 69.098 251.186C68.3107 251.662 67.6281 252.823 67.0504 254.669C65.4645 259.767 64.3487 263.069 63.703 264.575C63.0613 266.066 62.1577 267.43 61.0352 268.602C59.5487 269.99 57.7328 270.975 55.7592 271.466C57.2149 272.945 58.2476 274.787 58.7498 276.801C59.1661 278.653 59.0132 281.117 58.308 284.184L56.1417 293.691C56.0997 294.131 56.1496 294.575 56.2886 294.995C56.4275 295.415 56.6526 295.801 56.949 296.129C57.5437 296.8 59.1577 297.506 61.7744 298.245L59.5824 305.968L57.8832 305.492C54.4509 304.523 51.9021 303.39 50.2369 302.093C48.6422 300.871 47.5778 299.083 47.2633 297.098C46.9348 295.081 47.3316 292.088 48.4531 288.118C49.6935 283.739 50.3359 280.907 50.3812 279.622C50.4235 278.292 50.1532 276.971 49.5914 275.765C49.059 274.462 47.6203 273.431 45.2754 272.672Z" fill="white"/>
<path d="M45.2754 272.672L47.4587 264.941C49.8036 265.586 51.7606 265.394 53.3295 264.363C54.8984 263.332 56.3542 260.435 57.6965 255.672C58.407 252.962 59.3038 250.305 60.381 247.719C61.0526 246.158 62.1623 244.824 63.5757 243.879C64.9842 242.974 66.6169 242.48 68.2907 242.452C70.7177 242.483 73.1264 242.878 75.436 243.624L77.1351 244.1L74.9601 251.797C71.8393 250.914 69.8853 250.71 69.098 251.186C68.3107 251.662 67.6281 252.823 67.0504 254.669C65.4645 259.767 64.3487 263.069 63.703 264.575C63.0613 266.066 62.1577 267.43 61.0352 268.602C59.5487 269.99 57.7328 270.975 55.7592 271.466C57.2149 272.945 58.2476 274.787 58.7498 276.801C59.1661 278.653 59.0132 281.117 58.308 284.184L56.1417 293.691C56.0997 294.131 56.1496 294.575 56.2886 294.995C56.4275 295.415 56.6526 295.801 56.949 296.129C57.5437 296.8 59.1577 297.506 61.7744 298.245L59.5824 305.968L57.8832 305.492C54.4509 304.523 51.9021 303.39 50.2369 302.093C48.6422 300.871 47.5778 299.083 47.2633 297.098C46.9348 295.081 47.3316 292.088 48.4531 288.118C49.6935 283.739 50.3359 280.907 50.3812 279.622C50.4235 278.292 50.1532 276.971 49.5914 275.765C49.059 274.462 47.6203 273.431 45.2754 272.672Z" stroke="#001E2B" stroke-linecap="round" stroke-linejoin="round"/>
<path d="M45.2754 272.672L47.4587 264.941C49.8036 265.586 51.7606 265.394 53.3295 264.363C54.8984 263.332 56.3542 260.435 57.6965 255.672C58.407 252.962 59.3038 250.305 60.381 247.719C61.0526 246.158 62.1623 244.824 63.5757 243.879C64.9842 242.974 66.6169 242.48 68.2907 242.452C70.7177 242.483 73.1264 242.878 75.436 243.624L77.1351 244.1L74.9601 251.797C71.8393 250.914 69.8853 250.71 69.098 251.186C68.3107 251.662 67.6281 252.823 67.0504 254.669C65.4645 259.767 64.3487 263.069 63.703 264.575C63.0613 266.066 62.1577 267.43 61.0352 268.602C59.5487 269.99 57.7328 270.975 55.7592 271.466C57.2149 272.945 58.2476 274.787 58.7498 276.801C59.1661 278.653 59.0132 281.117 58.308 284.184L56.1417 293.691C56.0997 294.131 56.1496 294.575 56.2886 294.995C56.4275 295.415 56.6526 295.801 56.949 296.129C57.5437 296.8 59.1577 297.506 61.7744 298.245L59.5824 305.968L57.8832 305.492C54.4509 304.523 51.9021 303.39 50.2369 302.093C48.6422 300.871 47.5778 299.083 47.2633 297.098C46.9348 295.081 47.3316 292.088 48.4531 288.118C49.6935 283.739 50.3359 280.907 50.3812 279.622C50.4235 278.292 50.1532 276.971 49.5914 275.765C49.059 274.462 47.6203 273.431 45.2754 272.672Z" fill="#00ED64" stroke="#001E2B" stroke-linecap="round" stroke-linejoin="round"/>
<path d="M181.015 108.412C181.018 110.297 180.784 112.175 180.318 114.002H171.695C171.621 110.201 170.578 106.483 168.664 103.198C166.75 99.9142 164.028 97.1736 160.757 95.2365C157.487 93.2994 153.776 92.2302 149.976 92.1302C146.176 92.0303 142.413 92.9028 139.045 94.6652C137.77 90.5999 135.663 86.8443 132.858 83.6373C130.053 80.4303 126.611 77.842 122.752 76.0369C118.892 74.2319 114.699 73.2496 110.44 73.1525C106.18 73.0554 101.947 73.8456 98.0093 75.4729C101.795 71.9041 106.425 69.356 111.465 68.0678C116.506 66.7796 121.791 66.7935 126.825 68.1084C131.858 69.4232 136.474 71.9958 140.241 75.5846C144.007 79.1733 146.8 83.6605 148.356 88.6246C151.759 86.8487 155.562 85.9798 159.398 86.102C163.234 86.2242 166.974 87.3333 170.257 89.3222C173.54 91.3111 176.254 94.1127 178.139 97.4565C180.023 100.8 181.014 104.573 181.015 108.412V108.412Z" fill="#001E2B" stroke="#001E2B" stroke-linecap="round" stroke-linejoin="round"/>
<path d="M172.315 108.573C172.315 110.456 172.079 112.331 171.61 114.155H62.1906C61.9307 112.868 61.7998 111.559 61.7998 110.247C61.795 105.208 63.7365 100.362 67.2193 96.7213C70.7021 93.0802 75.457 90.9252 80.4909 90.7061C82.0739 84.1859 85.7487 78.3637 90.954 74.13C96.1592 69.8963 102.608 67.4842 109.314 67.2626C116.02 67.041 122.614 69.0221 128.088 72.9029C133.561 76.7837 137.612 82.3506 139.622 88.752C143.025 86.9757 146.83 86.1069 150.667 86.2295C154.504 86.3521 158.244 87.4619 161.527 89.4518C164.81 91.4417 167.524 94.2445 169.408 97.5895C171.292 100.934 172.281 104.709 172.281 108.548L172.315 108.573Z" fill="white" stroke="#001E2B" stroke-linecap="round" stroke-linejoin="round"/>
<path d="M347.45 66.2039L348.198 65.7961" stroke="#001E2B" stroke-miterlimit="10"/>
<path d="M349.667 64.9973L404.832 34.9727" stroke="#001E2B" stroke-miterlimit="10" stroke-dasharray="1.97 1.97"/>
<path d="M405.562 34.5736L406.31 34.1658" stroke="#001E2B" stroke-miterlimit="10"/>
<path d="M303.11 71.225L303.858 70.8257" stroke="#001E2B" stroke-miterlimit="10"/>
<path d="M305.327 70.0185L360.491 39.9939" stroke="#001E2B" stroke-miterlimit="10" stroke-dasharray="1.97 1.97"/>
<path d="M361.222 39.5946L361.97 39.1868" stroke="#001E2B" stroke-miterlimit="10"/>
<path d="M97.644 355.813L98.3917 355.406" stroke="#001E2B" stroke-miterlimit="10"/>
<path d="M99.8618 354.598L155.026 324.582" stroke="#001E2B" stroke-miterlimit="10" stroke-dasharray="1.97 1.97"/>
<path d="M155.756 324.174L156.504 323.775" stroke="#001E2B" stroke-miterlimit="10"/>
<path d="M53.3037 360.834L54.0514 360.427" stroke="#001E2B" stroke-miterlimit="10"/>
<path d="M55.521 359.628L110.685 329.603" stroke="#001E2B" stroke-miterlimit="10" stroke-dasharray="1.97 1.97"/>
<path d="M111.416 329.204L112.163 328.796" stroke="#001E2B" stroke-miterlimit="10"/>
<path d="M93.8125 262.401L253.799 328.533L413.829 262.401V262.426L253.799 196.294L93.8125 262.426V262.401Z" fill="#FFE212" stroke="#001E2B" stroke-linecap="round" stroke-linejoin="round"/>
<path d="M93.8125 262.426V289.035L253.799 355.151L413.735 289.035V262.401L253.799 328.533L93.8125 262.426Z" fill="#17a2b8" stroke="#001E2B" stroke-linecap="round" stroke-linejoin="round"/>
<path d="M253.799 328.533V355.151" stroke="#001E2B" stroke-linecap="round" stroke-linejoin="round"/>
<path d="M93.8125 193.142L253.799 259.274L413.829 193.142V193.159L253.799 127.026L93.8125 193.159V193.142Z" fill="#FFEEA9" stroke="#001E2B" stroke-linecap="round" stroke-linejoin="round"/>
<path d="M93.8125 193.159V219.768L253.799 285.883L413.735 219.768V193.142L253.799 259.274L93.8125 193.159Z" fill="#17a2b8" stroke="#001E2B" stroke-linecap="round" stroke-linejoin="round"/>
<path d="M253.799 259.274V285.883" stroke="#001E2B" stroke-linecap="round" stroke-linejoin="round"/>
<path d="M413.829 193.142L361.434 171.638L253.799 215.962L305.803 237.728L413.829 193.142Z" fill="#001E2B"/>
<path d="M413.871 262.485L361.477 240.982L253.799 285.883L304.41 307.378L413.871 262.485Z" fill="#001E2B"/>
<path d="M93.8125 123.22L253.799 189.352L413.829 123.22V123.237L253.799 57.1047L93.8125 123.237V123.22Z" fill="#FFC010" stroke="#001E2B" stroke-miterlimit="10"/>
<path d="M93.8125 123.237V149.846L253.799 215.962L413.735 149.846V123.22L253.799 189.353L93.8125 123.237Z" fill="#17a2b8" stroke="#001E2B" stroke-linecap="round" stroke-linejoin="round"/>
<path d="M253.799 189.352V215.962" stroke="#001E2B" stroke-linecap="round" stroke-linejoin="round"/>
<path d="M194.132 330.954L93.8804 289.519V262.91L168.246 293.648C175.003 307.283 183.725 319.852 194.132 330.954V330.954Z" fill="#001E2B"/>
<path d="M153.522 244.899L93.8721 220.261V193.651L152.417 217.848C152.298 220.218 152.248 222.597 152.248 225.001C152.242 231.654 152.668 238.301 153.522 244.899V244.899Z" fill="#001E2B"/>
<path d="M169.027 154.774C165.305 162.091 162.179 169.697 159.682 177.517L93.8975 150.33V123.764L169.027 154.774Z" fill="#001E2B"/>
<path d="M445.816 340.41C445.82 342.468 445.56 344.518 445.043 346.51H435.638C435.555 342.363 434.414 338.305 432.324 334.721C430.234 331.137 427.264 328.147 423.695 326.032C420.125 323.918 416.076 322.75 411.928 322.639C407.781 322.528 403.675 323.477 399.997 325.398C398.603 320.96 396.302 316.86 393.239 313.359C390.175 309.859 386.417 307.033 382.203 305.063C377.99 303.093 373.412 302.021 368.761 301.914C364.111 301.808 359.489 302.671 355.189 304.447C359.323 300.551 364.379 297.77 369.883 296.365C375.386 294.959 381.156 294.975 386.651 296.412C392.147 297.848 397.187 300.657 401.299 304.576C405.411 308.494 408.459 313.393 410.158 318.813C413.873 316.863 418.028 315.905 422.222 316.032C426.416 316.159 430.506 317.368 434.095 319.54C437.685 321.713 440.653 324.775 442.71 328.432C444.768 332.088 445.847 336.214 445.841 340.41H445.816Z" fill="#001E2B" stroke="#001E2B" stroke-linecap="round" stroke-linejoin="round"/>
<path d="M436.309 340.597C436.311 342.652 436.055 344.698 435.544 346.689H316.091C315.472 343.663 315.518 340.539 316.225 337.533C316.933 334.527 318.285 331.71 320.189 329.279C322.093 326.847 324.503 324.859 327.252 323.451C330 322.043 333.022 321.249 336.108 321.124C337.829 313.998 341.839 307.633 347.524 303.004C353.208 298.375 360.254 295.737 367.581 295.495C374.908 295.253 382.112 297.42 388.09 301.664C394.068 305.908 398.489 311.995 400.677 318.992C404.392 317.043 408.548 316.087 412.742 316.216C416.935 316.345 421.025 317.554 424.614 319.727C428.203 321.901 431.17 324.963 433.228 328.62C435.285 332.276 436.364 336.402 436.36 340.597H436.309Z" fill="white" stroke="#001E2B" stroke-linecap="round" stroke-linejoin="round"/>
</svg>
